name C:/MyDriveSym/Projects/mobilecap/Data\Session20210830_0001\mocap\ForceDataProcessed\DJAsym1_forces.mot
datacolumns 28
datarows 16
range 1.95700000 1.96450000
endheader 
time	R_ground_force_vx	R_ground_force_vy	R_ground_force_vz	R_ground_force_px	R_ground_force_py	R_ground_force_pz	R_ground_torque_x	R_ground_torque_y	R_ground_torque_z	L_ground_force_vx	L_ground_force_vy	L_ground_force_vz	L_ground_force_px	L_ground_force_py	L_ground_force_pz	L_ground_torque_x	L_ground_torque_y	L_ground_torque_z	3_ground_force_vx	3_ground_force_vy	3_ground_force_vz	3_ground_force_px	3_ground_force_py	3_ground_force_pz	3_ground_torque_x	3_ground_torque_y	3_ground_torque_z	
          1.95700000	        -83.23909600	        851.83797200	        -42.76329500	         -0.10720300	          0.00600000	         -0.46052100	          0.00000000	          5.00471800	          0.00000000	          0.00000000	          0.00000000	          0.00000000	          0.00000000	          0.00000000	          0.00000000	          0.00000000	          0.00000000	          0.00000000	          0.00000000	          0.00000000	          0.00000000	          0.00000000	          0.00000000	          0.00000000	          0.00000000	          0.00000000	          0.00000000	
          1.95750000	        -82.59074500	        846.61781400	        -42.63367200	         -0.10696600	          0.00600000	         -0.46045300	          0.00000000	          5.02670300	          0.00000000	          0.00000000	          0.00000000	          0.00000000	          0.00000000	          0.00000000	          0.00000000	          0.00000000	          0.00000000	          0.00000000	          0.00000000	          0.00000000	          0.00000000	          0.00000000	          0.00000000	          0.00000000	          0.00000000	          0.00000000	          0.00000000	
          1.95800000	        -81.91722100	        841.32002900	        -42.48927800	         -0.10672700	          0.00600000	         -0.46038500	          0.00000000	          5.04577500	          0.00000000	          0.00000000	          0.00000000	          0.00000000	          0.00000000	          0.00000000	          0.00000000	          0.00000000	          0.00000000	          0.00000000	          0.00000000	          0.00000000	          0.00000000	          0.00000000	          0.00000000	          0.00000000	          0.00000000	          0.00000000	          0.00000000	
          1.95850000	        -81.21853600	        835.94568900	        -42.33013700	         -0.10648700	          0.00600000	         -0.46031700	          0.00000000	          5.06189100	          0.00000000	          0.00000000	          0.00000000	          0.00000000	          0.00000000	          0.00000000	          0.00000000	          0.00000000	          0.00000000	          0.00000000	          0.00000000	          0.00000000	          0.00000000	          0.00000000	          0.00000000	          0.00000000	          0.00000000	          0.00000000	          0.00000000	
          1.95900000	        -80.49468800	        830.49588500	        -42.15634500	         -0.10624500	          0.00600000	         -0.46024800	          0.00000000	          5.07501300	          0.00000000	          0.00000000	          0.00000000	          0.00000000	          0.00000000	          0.00000000	          0.00000000	          0.00000000	          0.00000000	          0.00000000	          0.00000000	          0.00000000	          0.00000000	          0.00000000	          0.00000000	          0.00000000	          0.00000000	          0.00000000	          0.00000000	
          1.95950000	        -79.74567100	        824.97169100	        -41.96806900	         -0.10600100	          0.00600000	         -0.46017900	          0.00000000	          5.08511300	          0.00000000	          0.00000000	          0.00000000	          0.00000000	          0.00000000	          0.00000000	          0.00000000	          0.00000000	          0.00000000	          0.00000000	          0.00000000	          0.00000000	          0.00000000	          0.00000000	          0.00000000	          0.00000000	          0.00000000	          0.00000000	          0.00000000	
          1.96000000	        -78.97147600	        819.37414000	        -41.76554800	         -0.10575600	          0.00600000	         -0.46011000	          0.00000000	          5.09218000	          0.00000000	          0.00000000	          0.00000000	          0.00000000	          0.00000000	          0.00000000	          0.00000000	          0.00000000	          0.00000000	          0.00000000	          0.00000000	          0.00000000	          0.00000000	          0.00000000	          0.00000000	          0.00000000	          0.00000000	          0.00000000	          0.00000000	
          1.96050000	        -78.17210100	        813.70422900	        -41.54908500	         -0.10551000	          0.00600000	         -0.46004100	          0.00000000	          5.09621800	          0.00000000	          0.00000000	          0.00000000	          0.00000000	          0.00000000	          0.00000000	          0.00000000	          0.00000000	          0.00000000	          0.00000000	          0.00000000	          0.00000000	          0.00000000	          0.00000000	          0.00000000	          0.00000000	          0.00000000	          0.00000000	          0.00000000	
          1.96100000	        -77.34755600	        807.96294400	        -41.31904300	         -0.10526200	          0.00600000	         -0.45997200	          0.00000000	          5.09724800	          0.00000000	          0.00000000	          0.00000000	          0.00000000	          0.00000000	          0.00000000	          0.00000000	          0.00000000	          0.00000000	          0.00000000	          0.00000000	          0.00000000	          0.00000000	          0.00000000	          0.00000000	          0.00000000	          0.00000000	          0.00000000	          0.00000000	
          1.96150000	        -76.49787200	        802.15126400	        -41.07584200	         -0.10501300	          0.00600000	         -0.45990300	          0.00000000	          5.09530900	          0.00000000	          0.00000000	          0.00000000	          0.00000000	          0.00000000	          0.00000000	          0.00000000	          0.00000000	          0.00000000	          0.00000000	          0.00000000	          0.00000000	          0.00000000	          0.00000000	          0.00000000	          0.00000000	          0.00000000	          0.00000000	          0.00000000	
          1.96200000	        -75.62310000	        796.27014900	        -40.81995100	         -0.10476300	          0.00600000	         -0.45983400	          0.00000000	          5.09045500	          0.00000000	          0.00000000	          0.00000000	          0.00000000	          0.00000000	          0.00000000	          0.00000000	          0.00000000	          0.00000000	          0.00000000	          0.00000000	          0.00000000	          0.00000000	          0.00000000	          0.00000000	          0.00000000	          0.00000000	          0.00000000	          0.00000000	
          1.96250000	        -74.72330600	        790.32051000	        -40.55187500	         -0.10451200	          0.00600000	         -0.45976400	          0.00000000	          5.08275000	          0.00000000	          0.00000000	          0.00000000	          0.00000000	          0.00000000	          0.00000000	          0.00000000	          0.00000000	          0.00000000	          0.00000000	          0.00000000	          0.00000000	          0.00000000	          0.00000000	          0.00000000	          0.00000000	          0.00000000	          0.00000000	          0.00000000	
          1.96300000	        -73.79856400	        784.30319900	        -40.27214000	         -0.10426000	          0.00600000	         -0.45969400	          0.00000000	          5.07227200	          0.00000000	          0.00000000	          0.00000000	          0.00000000	          0.00000000	          0.00000000	          0.00000000	          0.00000000	          0.00000000	          0.00000000	          0.00000000	          0.00000000	          0.00000000	          0.00000000	          0.00000000	          0.00000000	          0.00000000	          0.00000000	          0.00000000	
          1.96350000	        -72.84896000	        778.21901600	        -39.98128700	         -0.10400700	          0.00600000	         -0.45962400	          0.00000000	          5.05910400	          0.00000000	          0.00000000	          0.00000000	          0.00000000	          0.00000000	          0.00000000	          0.00000000	          0.00000000	          0.00000000	          0.00000000	          0.00000000	          0.00000000	          0.00000000	          0.00000000	          0.00000000	          0.00000000	          0.00000000	          0.00000000	          0.00000000	
          1.96400000	        -71.87460800	        772.06874000	        -39.67985400	         -0.10375300	          0.00600000	         -0.45955300	          0.00000000	          5.04334000	          0.00000000	          0.00000000	          0.00000000	          0.00000000	          0.00000000	          0.00000000	          0.00000000	          0.00000000	          0.00000000	          0.00000000	          0.00000000	          0.00000000	          0.00000000	          0.00000000	          0.00000000	          0.00000000	          0.00000000	          0.00000000	          0.00000000	
          1.96450000	        -70.87565500	        765.85313700	        -39.36835500	         -0.10349800	          0.00600000	         -0.45948200	          0.00000000	          5.02507900	          0.00000000	          0.00000000	          0.00000000	          0.00000000	          0.00000000	          0.00000000	          0.00000000	          0.00000000	          0.00000000	          0.00000000	          0.00000000	          0.00000000	          0.00000000	          0.00000000	          0.00000000	          0.00000000	          0.00000000	          0.00000000	          0.00000000	
